<svg width="33" height="33" viewBox="0 0 33 33" fill="none" xmlns="http://www.w3.org/2000/svg">
<path d="M28.5 5.5H23.5C23.2348 5.5 22.9804 5.60536 22.7929 5.79289C22.6054 5.98043 22.5 6.23478 22.5 6.5C22.5 6.76522 22.6054 7.01957 22.7929 7.20711C22.9804 7.39464 23.2348 7.5 23.5 7.5H27.5V11.5C27.5 11.7652 27.6054 12.0196 27.7929 12.2071C27.9804 12.3946 28.2348 12.5 28.5 12.5C28.7652 12.5 29.0196 12.3946 29.2071 12.2071C29.3946 12.0196 29.5 11.7652 29.5 11.5V6.5C29.5 6.23479 29.3946 5.98044 29.2071 5.79291C29.0196 5.60537 28.7652 5.50001 28.5 5.5V5.5Z" fill="white"/>
<path d="M9.5 25.5H5.5V21.5C5.5 21.2348 5.39464 20.9804 5.20711 20.7929C5.01957 20.6054 4.76522 20.5 4.5 20.5C4.23478 20.5 3.98043 20.6054 3.79289 20.7929C3.60536 20.9804 3.5 21.2348 3.5 21.5V26.5C3.50001 26.7652 3.60537 27.0196 3.79291 27.2071C3.98044 27.3946 4.23479 27.5 4.5 27.5H9.5C9.76522 27.5 10.0196 27.3946 10.2071 27.2071C10.3946 27.0196 10.5 26.7652 10.5 26.5C10.5 26.2348 10.3946 25.9804 10.2071 25.7929C10.0196 25.6054 9.76522 25.5 9.5 25.5Z" fill="white"/>
<path d="M28.5 20.5C28.2348 20.5 27.9804 20.6054 27.7929 20.7929C27.6054 20.9804 27.5 21.2348 27.5 21.5V25.5H23.5C23.2348 25.5 22.9804 25.6054 22.7929 25.7929C22.6054 25.9804 22.5 26.2348 22.5 26.5C22.5 26.7652 22.6054 27.0196 22.7929 27.2071C22.9804 27.3946 23.2348 27.5 23.5 27.5H28.5C28.7652 27.5 29.0196 27.3946 29.2071 27.2071C29.3946 27.0196 29.5 26.7652 29.5 26.5V21.5C29.5 21.2348 29.3946 20.9804 29.2071 20.7929C29.0196 20.6054 28.7652 20.5 28.5 20.5V20.5Z" fill="white"/>
<path d="M4.5 12.5C4.76521 12.5 5.01956 12.3946 5.20709 12.2071C5.39463 12.0196 5.49999 11.7652 5.5 11.5V7.5H9.5C9.76522 7.5 10.0196 7.39464 10.2071 7.20711C10.3946 7.01957 10.5 6.76522 10.5 6.5C10.5 6.23478 10.3946 5.98043 10.2071 5.79289C10.0196 5.60536 9.76522 5.5 9.5 5.5H4.5C4.23479 5.50001 3.98044 5.60537 3.79291 5.79291C3.60537 5.98044 3.50001 6.23479 3.5 6.5V11.5C3.50001 11.7652 3.60537 12.0196 3.79291 12.2071C3.98044 12.3946 4.23479 12.5 4.5 12.5V12.5Z" fill="white"/>
<path d="M10.5 10.5C10.2348 10.5 9.98044 10.6054 9.79291 10.7929C9.60537 10.9804 9.50001 11.2348 9.5 11.5V21.5C9.5 21.7652 9.60536 22.0196 9.79289 22.2071C9.98043 22.3946 10.2348 22.5 10.5 22.5C10.7652 22.5 11.0196 22.3946 11.2071 22.2071C11.3946 22.0196 11.5 21.7652 11.5 21.5V11.5C11.5 11.2348 11.3946 10.9804 11.2071 10.7929C11.0196 10.6054 10.7652 10.5 10.5 10.5V10.5Z" fill="white"/>
<path d="M23.5 21.5V11.5C23.5 11.2348 23.3946 10.9804 23.2071 10.7929C23.0196 10.6054 22.7652 10.5 22.5 10.5C22.2348 10.5 21.9804 10.6054 21.7929 10.7929C21.6054 10.9804 21.5 11.2348 21.5 11.5V21.5C21.5 21.7652 21.6054 22.0196 21.7929 22.2071C21.9804 22.3946 22.2348 22.5 22.5 22.5C22.7652 22.5 23.0196 22.3946 23.2071 22.2071C23.3946 22.0196 23.5 21.7652 23.5 21.5Z" fill="white"/>
<path d="M18.5 10.5C18.2348 10.5 17.9804 10.6054 17.7929 10.7929C17.6054 10.9804 17.5 11.2348 17.5 11.5V21.5C17.5 21.7652 17.6054 22.0196 17.7929 22.2071C17.9804 22.3946 18.2348 22.5 18.5 22.5C18.7652 22.5 19.0196 22.3946 19.2071 22.2071C19.3946 22.0196 19.5 21.7652 19.5 21.5V11.5C19.5 11.2348 19.3946 10.9804 19.2071 10.7929C19.0196 10.6054 18.7652 10.5 18.5 10.5V10.5Z" fill="white"/>
<path d="M14.5 10.5C14.2348 10.5 13.9804 10.6054 13.7929 10.7929C13.6054 10.9804 13.5 11.2348 13.5 11.5V21.5C13.5 21.7652 13.6054 22.0196 13.7929 22.2071C13.9804 22.3946 14.2348 22.5 14.5 22.5C14.7652 22.5 15.0196 22.3946 15.2071 22.2071C15.3946 22.0196 15.5 21.7652 15.5 21.5V11.5C15.5 11.2348 15.3946 10.9804 15.2071 10.7929C15.0196 10.6054 14.7652 10.5 14.5 10.5Z" fill="white"/>
</svg>
